<?xml version="1.0" encoding="UTF-8"?>
<svg width="512" height="512" viewBox="0 0 512 512" fill="none" xmlns="http://www.w3.org/2000/svg">
  <!-- Фон -->
  <rect width="512" height="512" rx="100" fill="#18181B"/>
  
  <!-- Основной символ -->
  <g transform="translate(96, 96) scale(0.625)">
    <!-- Поток данных -->
    <path d="M256 64C256 46.33 270.33 32 288 32H416C433.67 32 448 46.33 448 64V192C448 209.67 433.67 224 416 224H288C270.33 224 256 209.67 256 192V64Z" fill="#3B82F6"/>
    
    <!-- Карточки канбан -->
    <path d="M64 288C64 270.33 78.33 256 96 256H224C241.67 256 256 270.33 256 288V416C256 433.67 241.67 448 224 448H96C78.33 448 64 433.67 64 416V288Z" fill="#10B981"/>
    
    <!-- Соединяющая линия -->
    <path d="M256 144H384M384 144L344 104M384 144L344 184" stroke="white" stroke-width="32" stroke-linecap="round" stroke-linejoin="round"/>
    
    <!-- Круговая стрелка -->
    <path d="M160 368C160 350.33 174.33 336 192 336C209.67 336 224 350.33 224 368C224 385.67 209.67 400 192 400C174.33 400 160 385.67 160 368Z" fill="white"/>
  </g>
</svg>
